FILE "Nightruth - Explanation of the Paranormal - 'Yami no Tobira' (Japan) (Track 1).bin" BINARY
  TRACK 01 MODE2/2352
    INDEX 01 00:00:00
FILE "Nightruth - Explanation of the Paranormal - 'Yami no Tobira' (Japan) (Track 2).bin" BINARY
  TRACK 02 AUDIO
    INDEX 00 00:00:00
    INDEX 01 00:02:00
FILE "Nightruth - Explanation of the Paranormal - 'Yami no Tobira' (Japan) (Track 3).bin" BINARY
  TRACK 03 AUDIO
    INDEX 00 00:00:00
    INDEX 01 00:02:00
